<?xml version="1.0" encoding="UTF-8" standalone="no"?>
<!-- Generator: Adobe Illustrator 16.0.0, SVG Export Plug-In . SVG Version: 6.00 Build 0)  -->

<svg
   xmlns:dc="http://purl.org/dc/elements/1.1/"
   xmlns:cc="http://creativecommons.org/ns#"
   xmlns:rdf="http://www.w3.org/1999/02/22-rdf-syntax-ns#"
   xmlns:svg="http://www.w3.org/2000/svg"
   xmlns="http://www.w3.org/2000/svg"
   xmlns:sodipodi="http://sodipodi.sourceforge.net/DTD/sodipodi-0.dtd"
   xmlns:inkscape="http://www.inkscape.org/namespaces/inkscape"
   version="1.1"
   id="Layer_1"
   x="0px"
   y="0px"
   width="36px"
   height="30.001px"
   viewBox="0 0 36 30.001"
   enable-background="new 0 0 36 30.001"
   xml:space="preserve"
   inkscape:version="0.91 r13725"
   sodipodi:docname="arrow1.svg"><metadata
     id="metadata15"><rdf:RDF><cc:Work
         rdf:about=""><dc:format>image/svg+xml</dc:format><dc:type
           rdf:resource="http://purl.org/dc/dcmitype/StillImage" /><dc:title></dc:title></cc:Work></rdf:RDF></metadata><defs
     id="defs13" /><sodipodi:namedview
     pagecolor="#ffffff"
     bordercolor="#666666"
     borderopacity="1"
     objecttolerance="10"
     gridtolerance="10"
     guidetolerance="10"
     inkscape:pageopacity="0"
     inkscape:pageshadow="2"
     inkscape:window-width="1920"
     inkscape:window-height="1017"
     id="namedview11"
     showgrid="false"
     inkscape:zoom="7.8664046"
     inkscape:cx="18"
     inkscape:cy="15.0005"
     inkscape:window-x="-8"
     inkscape:window-y="-8"
     inkscape:window-maximized="1"
     inkscape:current-layer="Layer_1" /><g
     id="g3"
     transform="matrix(-1,0,0,1,36,0)"><path
       d="m 35,1 0,28.001 -20,0 c -7.72,0 -14,-6.28 -14,-14 C 1,7.282 7.28,1.001 15,1 L 35,1 M 36,0 15,0 C 6.716,0.001 0,6.717 0,15.001 c 0,8.284 6.716,15 15,15 l 21,0 L 36,0 36,0 Z"
       id="path5"
       inkscape:connector-curvature="0"
       style="fill:#ffffff" /></g><g
     id="g7"
     transform="matrix(-1,0,0,1,32.716,0)"><polygon
       points="11.488,13.936 16.261,9.114 15.146,7.988 8.299,14.912 15.331,22.015 16.476,20.857 11.581,15.913 24.417,15.913 24.417,13.936 "
       id="polygon9"
       style="clip-rule:evenodd;fill:#ffffff;fill-rule:evenodd" /></g></svg>