<?xml version="1.0" encoding="utf-8"?>
<!-- Generator: Adobe Illustrator 16.0.0, SVG Export Plug-In . SVG Version: 6.00 Build 0)  -->
<!DOCTYPE svg PUBLIC "-//W3C//DTD SVG 1.1//EN" "http://www.w3.org/Graphics/SVG/1.1/DTD/svg11.dtd">
<svg version="1.1" id="Layer_1" xmlns="http://www.w3.org/2000/svg" xmlns:xlink="http://www.w3.org/1999/xlink" x="0px" y="0px"
	 width="13.003px" height="12px" viewBox="0 0 13.003 12" enable-background="new 0 0 13.003 12" xml:space="preserve">
<g>
	<path fill="#FFFFFF" d="M12.948,3.742l-2.148,7.078C10.604,11.484,9.917,12,9.245,12H2.034c-0.797,0-1.648-0.633-1.938-1.445
		c-0.125-0.352-0.125-0.695-0.016-0.992c0.016-0.156,0.047-0.313,0.055-0.5c0.008-0.125-0.063-0.227-0.047-0.32
		c0.031-0.188,0.195-0.32,0.32-0.531c0.234-0.391,0.5-1.023,0.586-1.43c0.039-0.148-0.039-0.32,0-0.453
		C1.034,6.18,1.182,6.07,1.26,5.93C1.471,5.57,1.745,4.875,1.784,4.508c0.016-0.164-0.063-0.344-0.016-0.469
		c0.055-0.18,0.227-0.258,0.344-0.414c0.188-0.258,0.5-1,0.547-1.414C2.674,2.078,2.596,1.945,2.62,1.805
		C2.651,1.656,2.838,1.5,2.963,1.32c0.328-0.484,0.391-1.555,1.383-1.273L4.338,0.07C4.471,0.039,4.604,0,4.737,0h5.945
		c0.367,0,0.695,0.164,0.891,0.438c0.203,0.281,0.25,0.648,0.141,1.016L9.573,8.531C9.206,9.734,9.002,10,8.01,10H1.221
		c-0.102,0-0.227,0.023-0.297,0.117c-0.063,0.094-0.07,0.164-0.008,0.336C1.073,10.906,1.612,11,2.042,11h7.211
		c0.289,0,0.625-0.164,0.711-0.445l2.344-7.711c0.047-0.148,0.047-0.305,0.039-0.445c0.18,0.07,0.344,0.18,0.461,0.336
		C13.002,3.016,13.057,3.383,12.948,3.742z M4.018,5h4.75c0.133,0,0.281-0.109,0.328-0.25l0.164-0.5C9.307,4.109,9.229,4,9.088,4
		h-4.75C4.206,4,4.057,4.109,4.01,4.25l-0.164,0.5C3.799,4.891,3.877,5,4.018,5z M4.667,3h4.75c0.133,0,0.281-0.109,0.328-0.25
		l0.164-0.5C9.956,2.109,9.877,2,9.737,2h-4.75C4.854,2,4.706,2.109,4.659,2.25l-0.164,0.5C4.448,2.891,4.526,3,4.667,3z"/>
</g>
</svg>
