<?xml version="1.0" encoding="utf-8"?>
<!-- Generator: Adobe Illustrator 16.0.0, SVG Export Plug-In . SVG Version: 6.00 Build 0)  -->
<!DOCTYPE svg PUBLIC "-//W3C//DTD SVG 1.1//EN" "http://www.w3.org/Graphics/SVG/1.1/DTD/svg11.dtd">
<svg version="1.1" id="Layer_1" xmlns="http://www.w3.org/2000/svg" xmlns:xlink="http://www.w3.org/1999/xlink" x="0px" y="0px"
	 width="12px" height="12px" viewBox="0 0 12 12" enable-background="new 0 0 12 12" xml:space="preserve">
<g>
	<path fill="#FFFFFF" d="M12,10.461C12,11.305,11.305,12,10.461,12H1.539C0.695,12,0,11.305,0,10.461V1.539C0,0.695,0.695,0,1.539,0
		h8.922C11.305,0,12,0.695,12,1.539V10.461z M10.641,5.078H9.586c0.102,0.32,0.156,0.672,0.156,1.023c0,2-1.672,3.617-3.734,3.617
		c-2.055,0-3.727-1.617-3.727-3.617c0-0.352,0.055-0.703,0.156-1.023H1.336v5.063c0,0.266,0.211,0.477,0.477,0.477h8.352
		c0.266,0,0.477-0.211,0.477-0.477V5.078z M6.008,3.641c-1.328,0-2.406,1.047-2.406,2.336S4.68,8.313,6.008,8.313
		c1.336,0,2.414-1.047,2.414-2.336S7.344,3.641,6.008,3.641z M10.641,1.875c0-0.297-0.242-0.539-0.539-0.539H8.742
		c-0.297,0-0.539,0.242-0.539,0.539v1.289c0,0.297,0.242,0.539,0.539,0.539h1.359c0.297,0,0.539-0.242,0.539-0.539V1.875z"/>
</g>
</svg>
