<?xml version="1.0" encoding="utf-8"?>
<!-- Generator: Adobe Illustrator 16.0.0, SVG Export Plug-In . SVG Version: 6.00 Build 0)  -->
<!DOCTYPE svg PUBLIC "-//W3C//DTD SVG 1.1//EN" "http://www.w3.org/Graphics/SVG/1.1/DTD/svg11.dtd">
<svg version="1.1" id="Layer_1" xmlns="http://www.w3.org/2000/svg" xmlns:xlink="http://www.w3.org/1999/xlink" x="0px" y="0px"
	 width="17.531px" height="17.531px" viewBox="0 0 17.531 17.531" enable-background="new 0 0 17.531 17.531" xml:space="preserve">
<g>
	<path fill="#525252" d="M17.531,15.283c0,1.232-1.016,2.248-2.248,2.248H2.248C1.016,17.531,0,16.516,0,15.283V2.248
		C0,1.016,1.016,0,2.248,0h13.035c1.232,0,2.248,1.016,2.248,2.248V15.283z M15.545,7.419h-1.54
		c0.148,0.468,0.228,0.981,0.228,1.495c0,2.922-2.442,5.284-5.455,5.284c-3.002,0-5.444-2.362-5.444-5.284
		c0-0.514,0.08-1.027,0.229-1.495H1.952v7.396c0,0.389,0.308,0.696,0.695,0.696h12.201c0.389,0,0.696-0.308,0.696-0.696V7.419z
		 M8.777,5.318c-1.94,0-3.516,1.53-3.516,3.413s1.575,3.412,3.516,3.412c1.951,0,3.526-1.529,3.526-3.412S10.729,5.318,8.777,5.318z
		 M15.545,2.739c0-0.434-0.354-0.787-0.787-0.787h-1.986c-0.434,0-0.787,0.354-0.787,0.787v1.883c0,0.435,0.354,0.788,0.787,0.788
		h1.986c0.434,0,0.787-0.354,0.787-0.788V2.739z"/>
</g>
</svg>
