<?xml version="1.0" encoding="utf-8"?>
<!-- Generator: Adobe Illustrator 16.0.0, SVG Export Plug-In . SVG Version: 6.00 Build 0)  -->
<!DOCTYPE svg PUBLIC "-//W3C//DTD SVG 1.1//EN" "http://www.w3.org/Graphics/SVG/1.1/DTD/svg11.dtd">
<svg version="1.1" id="Layer_1" xmlns="http://www.w3.org/2000/svg" xmlns:xlink="http://www.w3.org/1999/xlink" x="0px" y="0px"
	 width="60px" height="17.748px" viewBox="0.078 19.156 60 17.748" enable-background="new 0.078 19.156 60 17.748"
	 xml:space="preserve">
<g>
	<g>
		<path fill="#A1A1A1" d="M1.794,22.694h4.075v-3.271H1.794V22.694L1.794,22.694z M0.186,36.636h7.292v-3.003H5.922V24.25H0.078
			v3.002H1.74v6.381H0.186V36.636L0.186,36.636z"/>
		<path fill="#A1A1A1" d="M10.158,32.078c0,4.183,3.807,4.665,5.792,4.665c0.375,0,0.643,0,0.804,0l0.322-0.055v-3.378h-0.161
			c-0.107,0-0.214,0-0.429,0c-0.805,0-2.199-0.215-2.199-1.716v-4.397h2.574V24.25h-2.574v-3.325h-4.021v3.325H8.443v3.002h1.662
			v4.826H10.158z"/>
		<path fill="#A1A1A1" d="M19.328,32.078c0,4.183,2.359,4.665,4.558,4.665c0.375,0,0.643,0,0.912,0l0.375-0.055v-3.271h-0.161
			c-0.107,0-0.214,0-0.375,0c-0.912,0-1.18-0.431-1.18-1.609V19.424h-5.791v3.003h1.663L19.328,32.078L19.328,32.078z"/>
		<path fill="#A1A1A1" d="M26.459,30.47c0,3.86,3.11,6.434,7.023,6.434c3.916,0,7.024-2.572,7.024-6.434
			c0-3.914-3.108-6.488-7.077-6.488C29.623,23.981,26.459,26.556,26.459,30.47L26.459,30.47z M30.641,30.47
			c0-1.877,1.287-3.057,2.789-3.057c1.5,0,2.787,1.18,2.787,3.057c0,1.876-1.287,3.003-2.787,3.003
			C31.98,33.473,30.641,32.346,30.641,30.47L30.641,30.47z"/>
		<path fill="#A1A1A1" d="M42.116,36.636h7.561v-3.003H47.8v-6.381h2.574V24.25H47.8v-0.59c0-1.182,1.181-1.182,1.771-1.182
			c0.375,0,0.59,0,0.75,0l0.215,0.056v-3.271l-0.43-0.054c-0.16-0.054-0.481-0.054-0.965-0.054c-1.93,0-5.469,0.535-5.469,4.61
			v0.483H42.01v3.002h1.662v6.381h-1.555L42.116,36.636L42.116,36.636z"/>
		<path fill="#A1A1A1" d="M53.161,32.078c0,4.183,3.807,4.665,5.791,4.665c0.375,0,0.644,0,0.804,0l0.322-0.055v-3.378h-0.161
			c-0.106,0-0.214,0-0.429,0c-0.805,0-2.198-0.215-2.198-1.716v-4.397h2.573V24.25H57.29v-3.325H53.27v3.325h-1.824v3.002h1.717
			L53.161,32.078L53.161,32.078z"/>
	</g>
</g>
</svg>
