<?xml version="1.0" encoding="utf-8"?>
<!-- Generator: Adobe Illustrator 16.0.0, SVG Export Plug-In . SVG Version: 6.00 Build 0)  -->
<!DOCTYPE svg PUBLIC "-//W3C//DTD SVG 1.1//EN" "http://www.w3.org/Graphics/SVG/1.1/DTD/svg11.dtd">
<svg version="1.1" id="Layer_1" xmlns="http://www.w3.org/2000/svg" xmlns:xlink="http://www.w3.org/1999/xlink" x="0px" y="0px"
	 width="115px" height="37.409px" viewBox="0 0 115 37.409" enable-background="new 0 0 115 37.409" xml:space="preserve">
<g>
	<g>
		<polygon fill="#535353" points="27.067,16.298 27.067,30.918 16.612,30.918 16.612,23.43 16.612,20.447 13.63,20.447 
			6.239,20.447 6.239,23.43 13.63,23.43 13.63,30.918 13.63,33.9 16.612,33.9 27.067,33.9 30.049,33.9 30.049,30.918 30.049,16.298 
					"/>
		<polygon fill="#535353" points="2.992,16.298 0.009,16.298 0.009,30.918 0.009,33.9 2.992,33.9 7.222,33.9 7.222,30.918 
			2.992,30.918 		"/>
	</g>
	<polygon fill="#878787" points="30.049,15.393 15.113,0.308 14.911,0.511 0,15.393 2.943,15.402 15.092,3.254 27.106,15.402 	"/>
</g>
<g>
	<g>
		<path fill="#535353" d="M34.45,18.213V0.296h5.775c4.942,0,7.79,3.706,7.79,8.972c0,5.264-2.821,8.945-7.79,8.945H34.45z
			 M44.335,9.268c0-3.546-1.396-5.803-4.109-5.803h-2.176v11.577h2.176C42.885,15.042,44.335,12.68,44.335,9.268z"/>
		<path fill="#535353" d="M49.764,9.268C49.764,3.949,52.558,0,57.232,0c4.7,0,7.495,3.949,7.495,9.268
			c0,5.345-2.795,9.267-7.495,9.267C52.558,18.535,49.764,14.612,49.764,9.268z M61.046,9.268c0-3.465-1.343-6.07-3.814-6.07
			c-2.444,0-3.761,2.605-3.761,6.07c0,3.412,1.316,6.07,3.761,6.07C59.704,15.338,61.046,12.68,61.046,9.268z"/>
		<path fill="#535353" d="M80.202,18.213V6.662l-4.001,11.551h-1.425L70.801,6.662v11.551h-3.601V0.296h4.835l3.466,9.993
			l3.491-9.993h4.81v17.917H80.202z"/>
		<path fill="#535353" d="M86.949,12.034V0.296h3.627v11.766c0,2.121,1.074,3.303,2.98,3.303c1.88,0,2.956-1.182,2.956-3.303V0.296
			h3.627v11.738c0,4.136-2.554,6.5-6.583,6.5C89.5,18.535,86.949,16.17,86.949,12.034z"/>
		<path fill="#535353" d="M102.155,16.225l1.772-2.768c0.995,1.102,2.554,1.907,4.326,1.907c1.584,0,2.443-0.886,2.443-1.988
			c0-3.143-8.003-2.068-8.003-8.139c0-2.82,2.202-5.238,5.908-5.238c2.176,0,4.056,0.699,5.426,1.988l-1.718,2.687
			c-1.074-1.021-2.446-1.505-3.842-1.505c-1.289,0-2.095,0.726-2.095,1.828c0,2.794,7.977,2.041,7.977,8.085
			c0,3.144-2.147,5.453-6.07,5.453C105.567,18.535,103.58,17.647,102.155,16.225z"/>
	</g>
</g>
<g>
	<g>
		<path fill="#878787" d="M80.714,29.017h0.007c-0.112,0.383-0.224,0.897-0.336,1.545c-0.112,0.646-0.168,1.114-0.168,1.404
			c0,0.537-0.003,0.909-0.011,1.114c-0.007,0.206-0.05,0.373-0.129,0.505c-0.08,0.131-0.183,0.231-0.31,0.304
			c-0.125,0.073-0.269,0.109-0.426,0.109c-0.253,0-0.485-0.089-0.697-0.267c-0.213-0.177-0.319-0.386-0.319-0.624
			c0-0.079,0.064-0.42,0.196-1.021c0.117-0.537,0.21-0.997,0.28-1.381c-1.564,1.158-2.966,1.737-4.203,1.737
			c-0.836,0-1.501-0.242-1.993-0.729c-0.493-0.485-0.739-1.151-0.739-1.997c0-1.335,0.401-2.617,1.204-3.846v0.008
			c0.855-1.28,1.865-2.289,3.03-3.027c1.166-0.737,2.33-1.106,3.493-1.106c0.602,0,1.079,0.11,1.429,0.332
			c0.35,0.223,0.525,0.504,0.525,0.846c0,0.284-0.12,0.6-0.36,0.944c-0.241,0.346-0.482,0.52-0.726,0.52
			c-0.154,0-0.269-0.032-0.344-0.096c-0.075-0.063-0.151-0.188-0.23-0.375c-0.09-0.21-0.19-0.357-0.306-0.444
			c-0.114-0.086-0.281-0.13-0.5-0.13c-0.71,0-1.521,0.35-2.435,1.048s-1.653,1.525-2.221,2.479
			c-0.568,0.955-0.852,1.867-0.852,2.736c0,0.915,0.393,1.373,1.177,1.373c0.406,0,0.893-0.105,1.458-0.315
			c0.564-0.211,1.167-0.54,1.808-0.987c0.639-0.449,1.022-0.857,1.151-1.227c0.129-0.368,0.227-0.775,0.291-1.22
			c0.037-0.261,0.135-0.435,0.291-0.521c0.156-0.086,0.367-0.13,0.634-0.13c0.612,0,0.918,0.209,0.918,0.624
			c0,0.163-0.08,0.43-0.238,0.799C80.938,28.281,80.822,28.62,80.714,29.017z"/>
		<path fill="#878787" d="M84.771,29.003l0.119-0.224c0.565-1.136,1.173-2.057,1.825-2.764c0.651-0.708,1.287-1.063,1.909-1.063
			c0.477,0,0.865,0.131,1.166,0.393s0.452,0.572,0.452,0.932c0,0.225-0.052,0.417-0.154,0.578c-0.103,0.162-0.245,0.242-0.428,0.242
			c-0.29,0-0.553-0.12-0.791-0.358c-0.168-0.153-0.302-0.23-0.399-0.23c-0.351,0-0.937,0.544-1.759,1.632
			c-0.822,1.089-1.316,2.312-1.484,3.671c-0.052,0.393-0.167,0.667-0.344,0.824c-0.178,0.156-0.418,0.233-0.722,0.233
			c-0.322,0-0.551-0.183-0.687-0.55c-0.136-0.365-0.203-0.965-0.203-1.796c0-0.342,0.01-0.802,0.028-1.381
			c0.018-0.546,0.071-1.214,0.16-2.003c0.023-0.205,0.04-0.366,0.05-0.484c0.042-0.457,0.09-0.771,0.144-0.941
			s0.179-0.331,0.374-0.479c0.197-0.15,0.414-0.225,0.651-0.225c0.253,0,0.444,0.072,0.575,0.218
			c0.13,0.145,0.196,0.303,0.196,0.476c0,0.22-0.105,0.675-0.315,1.365c-0.075,0.239-0.138,0.524-0.189,0.855L84.771,29.003z"/>
		<path fill="#878787" d="M96.918,28.926c-0.313,1.093-0.907,2.014-1.783,2.764c-0.875,0.75-1.749,1.124-2.623,1.124
			c-0.691,0-1.261-0.253-1.71-0.76c-0.447-0.507-0.673-1.129-0.673-1.866c0-1.206,0.412-2.393,1.234-3.56
			c0.821-1.168,1.818-1.751,2.99-1.751c0.8,0,1.446,0.296,1.941,0.886c0.495,0.591,0.742,1.295,0.742,2.112
			c0,0.354-0.039,0.703-0.119,1.044V28.926z M93.275,26.712c-0.326,0.29-0.646,0.752-0.959,1.387
			c-0.313,0.636-0.469,1.272-0.469,1.913c0,0.388,0.07,0.707,0.214,0.959c0.142,0.253,0.33,0.379,0.563,0.379
			c0.58,0,1.183-0.343,1.808-1.03c0.626-0.687,0.939-1.456,0.939-2.312c0-0.481-0.102-0.876-0.305-1.188
			c-0.203-0.311-0.486-0.466-0.852-0.466c-0.346,0-0.656,0.12-0.932,0.357H93.275z"/>
		<path fill="#878787" d="M103.315,29.913c-0.449,0.818-0.969,1.468-1.56,1.947c-0.591,0.481-1.189,0.723-1.797,0.723
			c-0.359,0-0.723-0.189-1.089-0.567c-0.367-0.379-0.55-0.96-0.55-1.744c0-0.557,0.14-1.395,0.42-2.516
			c0.243-0.925,0.364-1.628,0.364-2.108c0.187-0.393,0.479-0.589,0.876-0.589c0.271,0,0.487,0.091,0.648,0.27
			c0.161,0.18,0.241,0.361,0.241,0.543c0,0.332-0.117,0.804-0.35,1.416c-0.136,0.363-0.282,0.879-0.438,1.545
			c-0.156,0.665-0.234,1.091-0.234,1.278c0,0.621,0.128,0.931,0.385,0.931c0.406,0,0.955-0.39,1.646-1.169
			c0.69-0.78,1.142-1.579,1.353-2.397c0.209-0.798,0.396-1.32,0.56-1.568s0.396-0.371,0.694-0.371c0.485,0,0.729,0.271,0.729,0.813
			c0,0.08-0.04,0.238-0.12,0.476c-0.275,0.827-0.413,1.759-0.413,2.797c0,1.213,0.206,1.939,0.617,2.178
			c0.135,0.08,0.202,0.177,0.202,0.295c0,0.168-0.118,0.326-0.356,0.476s-0.465,0.225-0.68,0.225c-0.368,0-0.652-0.261-0.851-0.781
			C103.414,31.491,103.315,30.792,103.315,29.913z"/>
		<path fill="#878787" d="M108.73,31.98c-0.079,0.327-0.158,0.821-0.237,1.484l-0.337,2.754c-0.057,0.447-0.165,0.759-0.326,0.932
			s-0.358,0.259-0.592,0.259c-0.21,0-0.41-0.078-0.599-0.234c-0.189-0.157-0.284-0.33-0.284-0.521c0-0.379,0.059-0.815,0.175-1.311
			c0.696-2.779,1.077-5.662,1.144-8.651v-0.141c0-0.626,0.017-1.043,0.051-1.251c0.036-0.207,0.136-0.391,0.303-0.55
			c0.165-0.158,0.399-0.238,0.703-0.238c0.509,0,0.765,0.391,0.765,1.17c0,0.318-0.059,0.857-0.176,1.619l-0.069,0.483
			c0.531-0.888,1.165-1.624,1.898-2.211c0.732-0.586,1.389-0.879,1.968-0.879c0.523,0,0.968,0.188,1.334,0.561
			c0.367,0.373,0.551,0.844,0.551,1.408c0,1.508-0.585,2.881-1.755,4.115c-1.17,1.236-2.327,1.854-3.472,1.854
			C109.232,32.632,108.884,32.415,108.73,31.98z M112.842,26.285c-0.569,0-1.309,0.556-2.218,1.667
			c-0.907,1.111-1.362,1.984-1.362,2.62c0,0.163,0.081,0.309,0.242,0.438s0.349,0.192,0.564,0.192c0.593,0,1.273-0.465,2.041-1.397
			c0.77-0.932,1.153-1.832,1.153-2.7c0-0.29-0.045-0.499-0.133-0.627C113.041,26.349,112.945,26.285,112.842,26.285z"/>
	</g>
</g>
<g transform="matrix(0.1385658914728682, 0, 0, 0.1385658914728682, 14.905968992248063, 49.70635658914728)">
	<g>
		<path id="kcs_3_" fill="#575757" d="M82.66-244.749h23.176v131.385H-4.082v-0.141h-6.216v-11.586c0-21.897,0-43.928,0-65.832
			h-49.171v-23.173h72.344v16.534c0,2.121,0,4.377,0,6.639c0,18.077,0,36.176,0,54.401h69.789v-108.227H82.66z M-80.94-244.749
			h-23.169v131.385h56.367v-23.166H-80.94V-244.749z"/>
		<path id="dcs1_3_" fill="#8D8D8D" d="M-10.587-320.053v-0.275l11.378-11.378l11.371,11.378v0.275l70.497,70.501h23.307
			l-0.282-0.278l-63.009-64.57v-0.144l-27.408-27.401v-0.148L2.976-354.516H2.839c-0.007,0-0.014,0-0.021,0l-1.959-1.98
			l-14.55,14.402v0.148l-27.556,27.401v0.144l-62.72,64.57l-0.285,0.278h23.173L-10.587-320.053z"/>
	</g>
</g>
</svg>
