<?xml version="1.0" encoding="utf-8"?>
<!-- Generator: Adobe Illustrator 16.0.0, SVG Export Plug-In . SVG Version: 6.00 Build 0)  -->
<!DOCTYPE svg PUBLIC "-//W3C//DTD SVG 1.1//EN" "http://www.w3.org/Graphics/SVG/1.1/DTD/svg11.dtd">
<svg version="1.1" id="Layer_1" xmlns="http://www.w3.org/2000/svg" xmlns:xlink="http://www.w3.org/1999/xlink" x="0px" y="0px"
	 width="7.797px" height="11.695px" viewBox="0 0 7.797 11.695" enable-background="new 0 0 7.797 11.695" xml:space="preserve">
<g>
	<path fill="#2E2E2E" d="M7.546,5.261l-2.771,5.893c-0.16,0.335-0.511,0.541-0.876,0.541s-0.716-0.206-0.868-0.541L0.251,5.261
		C0.054,4.843,0,4.363,0,3.898C0,1.744,1.743,0,3.898,0s3.898,1.744,3.898,3.898C7.797,4.363,7.743,4.843,7.546,5.261z M3.898,1.949
		c-1.073,0-1.949,0.875-1.949,1.949s0.876,1.949,1.949,1.949s1.949-0.875,1.949-1.949S4.972,1.949,3.898,1.949z"/>
</g>
</svg>
