<?xml version="1.0" encoding="utf-8"?>
<!-- Generator: Adobe Illustrator 16.0.0, SVG Export Plug-In . SVG Version: 6.00 Build 0)  -->
<!DOCTYPE svg PUBLIC "-//W3C//DTD SVG 1.1//EN" "http://www.w3.org/Graphics/SVG/1.1/DTD/svg11.dtd">
<svg version="1.1" id="Layer_1" xmlns="http://www.w3.org/2000/svg" xmlns:xlink="http://www.w3.org/1999/xlink" x="0px" y="0px"
	 width="10.721px" height="10.721px" viewBox="0 0 10.721 10.721" enable-background="new 0 0 10.721 10.721" xml:space="preserve">
<g>
	<path fill="#2E2E2E" d="M10.484,9.525c-0.159,0.373-0.586,0.617-0.929,0.807c-0.449,0.244-0.906,0.389-1.416,0.389
		c-0.708,0-1.348-0.289-1.995-0.525C5.68,10.027,5.23,9.822,4.813,9.563c-1.295-0.8-2.855-2.36-3.655-3.655
		C0.898,5.49,0.693,5.041,0.525,4.576C0.289,3.929,0,3.289,0,2.581c0-0.51,0.145-0.967,0.389-1.416
		c0.19-0.343,0.434-0.769,0.807-0.929C1.446,0.122,1.979,0,2.254,0c0.053,0,0.106,0,0.16,0.023c0.159,0.053,0.327,0.426,0.403,0.579
		c0.243,0.434,0.479,0.875,0.73,1.302C3.67,2.102,3.898,2.345,3.898,2.581c0,0.465-1.378,1.142-1.378,1.553
		c0,0.206,0.19,0.472,0.297,0.655c0.769,1.387,1.729,2.346,3.114,3.114C6.114,8.01,6.381,8.2,6.586,8.2
		c0.411,0,1.089-1.378,1.554-1.378c0.236,0,0.479,0.229,0.678,0.35c0.426,0.252,0.868,0.488,1.302,0.731
		c0.152,0.076,0.525,0.243,0.579,0.403c0.022,0.054,0.022,0.107,0.022,0.16C10.721,8.741,10.599,9.273,10.484,9.525z"/>
</g>
</svg>
