<?xml version="1.0" encoding="utf-8"?>
<!-- Generator: Adobe Illustrator 16.0.0, SVG Export Plug-In . SVG Version: 6.00 Build 0)  -->
<!DOCTYPE svg PUBLIC "-//W3C//DTD SVG 1.1//EN" "http://www.w3.org/Graphics/SVG/1.1/DTD/svg11.dtd">
<svg version="1.1" id="Layer_1" xmlns="http://www.w3.org/2000/svg" xmlns:xlink="http://www.w3.org/1999/xlink" x="0px" y="0px"
	 width="17.988px" height="14.609px" viewBox="0 0 17.988 14.609" enable-background="new 0 0 17.988 14.609" xml:space="preserve">
<g>
	<path fill="#525252" d="M16.139,3.641c0.012,0.16,0.012,0.32,0.012,0.479c0,4.874-3.709,10.489-10.489,10.489
		c-2.089,0-4.028-0.604-5.661-1.655C0.297,12.988,0.582,13,0.891,13c1.724,0,3.31-0.582,4.577-1.575
		c-1.621-0.034-2.979-1.096-3.447-2.557c0.229,0.034,0.456,0.058,0.696,0.058c0.331,0,0.662-0.046,0.97-0.126
		C1.998,8.457,0.73,6.974,0.73,5.182c0-0.012,0-0.034,0-0.046C1.222,5.41,1.792,5.581,2.397,5.604
		c-0.993-0.662-1.644-1.792-1.644-3.07c0-0.686,0.183-1.313,0.502-1.86C3.07,2.91,5.799,4.371,8.857,4.531
		C8.8,4.257,8.766,3.972,8.766,3.687C8.766,1.655,10.409,0,12.452,0c1.062,0,2.021,0.445,2.694,1.164
		c0.833-0.159,1.632-0.468,2.34-0.89c-0.274,0.855-0.856,1.574-1.621,2.031c0.742-0.08,1.461-0.285,2.123-0.57
		C17.486,2.466,16.858,3.116,16.139,3.641z"/>
</g>
</svg>
