<?xml version="1.0" encoding="utf-8"?>
<!-- Generator: Adobe Illustrator 16.0.0, SVG Export Plug-In . SVG Version: 6.00 Build 0)  -->
<!DOCTYPE svg PUBLIC "-//W3C//DTD SVG 1.1//EN" "http://www.w3.org/Graphics/SVG/1.1/DTD/svg11.dtd">
<svg version="1.1" id="Layer_1" xmlns="http://www.w3.org/2000/svg" xmlns:xlink="http://www.w3.org/1999/xlink" x="0px" y="0px"
	 width="21.922px" height="12.507px" viewBox="0 0 21.922 12.507" enable-background="new 0 0 21.922 12.507" xml:space="preserve">
<g>
	<path fill="#525252" d="M20.179,4.26c-2.215,2.945-2.454,2.671-0.628,4.372c1.758,1.632,2.123,2.42,2.18,2.522
		c0,0,0.73,1.278-0.81,1.29l-2.922,0.045c-0.628,0.126-1.461-0.445-1.461-0.445c-1.096-0.753-2.123-2.705-2.922-2.453
		c0,0-0.822,0.262-0.8,2.02c0.012,0.377-0.171,0.582-0.171,0.582s-0.205,0.217-0.604,0.252h-1.313
		c-2.888,0.183-5.434-2.477-5.434-2.477S2.511,7.091,0.067,1.35c-0.159-0.377,0.012-0.56,0.012-0.56s0.171-0.217,0.65-0.217
		l3.128-0.023c0.297,0.046,0.502,0.206,0.502,0.206s0.183,0.125,0.273,0.365C5.146,2.4,5.809,3.564,5.809,3.564
		C6.95,5.916,7.727,6.315,8.172,6.075c0,0,0.582-0.354,0.456-3.196C8.582,1.852,8.297,1.384,8.297,1.384
		C8.034,1.03,7.544,0.928,7.327,0.894c-0.172-0.023,0.114-0.434,0.49-0.617c0.56-0.274,1.553-0.285,2.729-0.274
		c0.924,0.012,1.187,0.069,1.54,0.148c1.085,0.263,0.72,1.267,0.72,3.687c0,0.776-0.148,1.86,0.41,2.214
		c0.24,0.16,0.834,0.023,2.295-2.465c0,0,0.685-1.187,1.221-2.568c0.092-0.251,0.285-0.354,0.285-0.354s0.183-0.103,0.434-0.068
		l3.287-0.023c0.993-0.125,1.153,0.331,1.153,0.331C22.062,1.373,21.525,2.468,20.179,4.26z"/>
</g>
</svg>
