<?xml version="1.0" encoding="utf-8"?>
<!-- Generator: Adobe Illustrator 16.0.0, SVG Export Plug-In . SVG Version: 6.00 Build 0)  -->
<!DOCTYPE svg PUBLIC "-//W3C//DTD SVG 1.1//EN" "http://www.w3.org/Graphics/SVG/1.1/DTD/svg11.dtd">
<svg version="1.1" id="Layer_1" xmlns="http://www.w3.org/2000/svg" xmlns:xlink="http://www.w3.org/1999/xlink" x="0px" y="0px"
	 width="19.285px" height="11.002px" viewBox="0 0 19.285 11.002" enable-background="new 0 0 19.285 11.002" xml:space="preserve">
<g>
	<path fill="#7E7D7D" d="M17.751,3.748c-1.949,2.591-2.16,2.35-0.553,3.845c1.547,1.437,1.867,2.129,1.918,2.22
		c0,0,0.643,1.124-0.713,1.134l-2.57,0.041c-0.553,0.11-1.285-0.392-1.285-0.392c-0.965-0.663-1.868-2.38-2.571-2.159
		c0,0-0.723,0.231-0.702,1.777c0.01,0.332-0.151,0.512-0.151,0.512s-0.181,0.191-0.532,0.221H9.438
		c-2.54,0.161-4.779-2.178-4.779-2.178S2.208,6.237,0.06,1.187c-0.141-0.331,0.01-0.492,0.01-0.492s0.151-0.191,0.572-0.191
		l2.751-0.02c0.261,0.04,0.441,0.181,0.441,0.181s0.161,0.11,0.241,0.321C4.528,2.111,5.11,3.135,5.11,3.135
		c1.004,2.068,1.687,2.419,2.078,2.208c0,0,0.512-0.311,0.402-2.811C7.55,1.629,7.299,1.217,7.299,1.217
		C7.068,0.906,6.636,0.816,6.446,0.786c-0.151-0.02,0.1-0.381,0.432-0.542c0.492-0.241,1.365-0.251,2.399-0.241
		c0.813,0.01,1.044,0.06,1.356,0.13c0.953,0.231,0.632,1.115,0.632,3.243c0,0.683-0.13,1.637,0.361,1.948
		c0.211,0.141,0.733,0.02,2.018-2.168c0,0,0.604-1.044,1.074-2.259c0.08-0.221,0.252-0.311,0.252-0.311s0.16-0.09,0.381-0.061
		l2.893-0.02c0.873-0.11,1.014,0.291,1.014,0.291C19.408,1.208,18.935,2.171,17.751,3.748z"/>
</g>
</svg>
